#!OML:ASF H:\Terrain\Patient Classification 1\Animal2\Wednesday\Animal2.ASF
:FULLY-SPECIFIED
:DEGREES
183
root 9.35457 17.6816 -24.3564 2.97105 3.36121 -3.78023
lowerback 5.40401 -3.03289 2.37917
upperback 0.012973 -3.80012 2.98318
thorax -2.96506 -1.90588 2.04296
lowerneck 0.334687 6.63413 15.7555
upperneck 0.276412 9.28355 -21.0284
head 1.82072 4.63478 -8.89245
rclavicle 1.04362e-014 -1.07344e-014
rhumerus -32.4072 -2.92208 -82.0286
rradius 18.5039
rwrist 21.3606
rhand -16.7396 23.0754
rfingers 7.12502
rthumb 9.48661 -6.69107
lclavicle 1.04362e-014 -1.07344e-014
lhumerus -41.1967 -11.1915 94.4099
lradius 33.5065
lwrist 11.4771
lhand -17.8082 27.087
lfingers 7.12502
lthumb 8.45543 56.8977
rfemur -18.7089 -2.37057 27.2324
rtibia 24.7046
rfoot -15.1051 -1.87558
rtoes 4.81646
lfemur -7.98461 3.2706 -15.1206
ltibia 58.8914
lfoot -2.73666 3.39838
ltoes -18.8863
184
root 9.34304 17.6958 -24.2435 2.85213 3.36419 -3.75877
lowerback 5.45327 -2.9832 2.41749
upperback 0.113744 -3.73336 2.96029
thorax -2.89355 -1.87296 1.99168
lowerneck 0.0228362 6.64951 15.5664
upperneck 0.665164 9.31182 -20.8155
head 1.96834 4.62464 -8.77031
rclavicle 5.7896e-014 -3.1408e-014
rhumerus -31.9143 -2.06355 -82.455
rradius 18.726
rwrist 20.7509
rhand -16.6838 23.3265
rfingers 7.12502
rthumb 9.54046 -6.43754
lclavicle 5.7896e-014 -3.1408e-014
lhumerus -41.0369 -11.0932 94.119
lradius 33.9923
lwrist 11.7413
lhand -18.2619 27.448
lfingers 7.12502
lthumb 8.01755 57.2759
rfemur -17.9319 -2.57208 27.269
rtibia 24.3387
rfoot -15.48 -1.8319
rtoes 3.94865
lfemur -9.43402 3.60012 -15.2925
ltibia 60.2448
lfoot -2.81328 4.04199
ltoes -21.6914
185
root 9.33011 17.7038 -24.124 2.68052 3.23068 -3.86418
lowerback 5.55811 -2.87008 2.55696
upperback 0.155461 -3.57052 2.94909
thorax -2.92086 -1.79353 1.89426
lowerneck -0.138458 6.67064 15.3383
upperneck 1.05209 9.3585 -20.4209
head 2.08095 4.63264 -8.58557
rclavicle -2.62396e-014 1.63003e-014
rhumerus -31.7258 -1.02932 -82.9152
rradius 19.1218
rwrist 20.1192
rhand -16.7369 22.9694
rfingers 7.12502
rthumb 9.4892 -6.7969
lclavicle -2.62396e-014 1.63003e-014
lhumerus -41.0033 -11.1235 93.9618
lradius 34.3736
lwrist 12.3495
lhand -19.2135 27.8252
lfingers 7.12502
lthumb 7.09907 57.6861
rfemur -17.1091 -2.58603 27.4336
rtibia 24.0887
rfoot -15.8276 -1.80015
rtoes 3.16521
lfemur -10.6714 3.99829 -15.293
ltibia 61.4342
lfoot -3.08291 4.32623
ltoes -22.2583
186
root 9.31535 17.7126 -24.0026 2.60381 3.13438 -3.89687
lowerback 5.59225 -2.70294 2.63038
upperback 0.116987 -3.34224 2.87075
thorax -2.99137 -1.68146 1.75746
lowerneck -0.100205 6.53247 15.4556
upperneck 1.25045 9.19103 -20.2633
head 2.09607 4.5496 -8.56498
rclavicle 2.19657e-014 3.18055e-015
rhumerus -31.3717 -1.39964 -82.8451
rradius 18.9008
rwrist 20.9163
rhand -17.1335 22.438
rfingers 7.12502
rthumb 9.10648 -7.34544
lclavicle 2.19657e-014 3.18055e-015
lhumerus -41.0491 -11.3664 93.8593
lradius 34.655
lwrist 13.0412
lhand -20.0103 27.7584
lfingers 7.12502
lthumb 6.32986 57.6438
rfemur -16.4966 -2.52941 27.5114
rtibia 23.9627
rfoot -16.0137 -1.64695
rtoes 3.49327
lfemur -11.9603 4.259 -15.3427
ltibia 62.4915
lfoot -3.82573 4.2147
ltoes -17.8221
187
root 9.30292 17.7214 -23.8898 2.6161 3.04792 -3.83248
lowerback 5.49992 -2.52702 2.62143
upperback 0.155475 -3.1166 2.78846
thorax -2.90593 -1.56921 1.65288
lowerneck -0.181557 6.35952 15.5826
upperneck 1.3573 8.95619 -20.2826
head 2.10341 4.42783 -8.60633
rclavicle -1.6847e-014 -3.18055e-014
rhumerus -30.7704 -1.27817 -82.9849
rradius 18.7256
rwrist 21.1267
rhand -17.4405 22.5413
rfingers 7.12502
rthumb 8.81028 -7.25478
lclavicle -1.6847e-014 -3.18055e-014
lhumerus -40.9892 -11.6974 93.8835
lradius 34.7673
lwrist 14.6992
lhand -21.6154 25.3095
lfingers 7.12502
lthumb 4.7801 55.2356
rfemur -16.0934 -2.516 27.49
rtibia 23.935
rfoot -16.2633 -1.53017
rtoes 3.64138
lfemur -13.418 4.48486 -15.5211
ltibia 63.4128
lfoot -4.59199 3.74819
ltoes -15.3356
188
root 9.28876 17.7202 -23.7772 2.53044 2.91625 -3.84897
lowerback 5.57749 -2.37995 2.62453
upperback 0.175969 -2.91757 2.78743
thorax -2.92994 -1.47012 1.63714
lowerneck -0.200487 6.26748 15.5759
upperneck 1.51949 8.84853 -20.2845
head 2.13204 4.37063 -8.61171
rclavicle -2.17172e-014 3.26007e-014
rhumerus -30.503 -0.0595133 -83.4686
rradius 19.2583
rwrist 20.0407
rhand -17.3356 21.5326
rfingers 7.12502
rthumb 8.91148 -8.25918
lclavicle -2.17172e-014 3.26007e-014
lhumerus -41.1201 -11.9167 94.0269
lradius 34.9218
lwrist 16.9527
lhand -23.3527 21.2943
lfingers 7.12502
lthumb 3.10245 51.2515
rfemur -15.574 -2.50073 27.5805
rtibia 23.9535
rfoot -16.6861 -1.48593
rtoes 4.18604
lfemur -14.7729 4.81033 -15.596
ltibia 64.1942
lfoot -5.18192 3.10843
ltoes -19.1824
189
root 9.27761 17.7131 -23.6615 2.26995 2.84488 -3.96304
lowerback 5.86448 -2.30684 2.74623
upperback 0.140089 -2.79656 2.79844
thorax -3.13421 -1.41202 1.58551
lowerneck 0.00491368 6.19327 15.5682
upperneck 1.75478 8.79899 -20.2078
head 2.14925 4.35305 -8.59405
rclavicle -2.76311e-014 2.26615e-014
rhumerus -30.3866 0.574171 -83.7036
rradius 19.7333
rwrist 19.663
rhand -17.052 20.6179
rfingers 7.12502
rthumb 9.18518 -9.16208
lclavicle -2.76311e-014 2.26615e-014
lhumerus -41.2526 -11.5344 93.6742
lradius 35.1942
lwrist 16.8218
lhand -22.706 21.0376
lfingers 7.12502
lthumb 3.72701 50.9847
rfemur -14.87 -2.60661 27.7624
rtibia 24.0433
rfoot -17.2346 -1.36028
rtoes 4.98196
lfemur -15.8821 4.97389 -15.579
ltibia 64.8297
lfoot -5.83393 2.45015
ltoes -23.5398
190
root 9.27438 17.7039 -23.5497 2.09577 2.63173 -4.11853
lowerback 6.0461 -2.21242 3.00298
upperback 0.168559 -2.64539 2.78303
thorax -3.21998 -1.34068 1.42078
lowerneck 0.190949 6.16375 15.3963
upperneck 1.73364 8.7661 -19.9362
head 2.08322 4.34726 -8.48165
rclavicle -4.96962e-016 1.70955e-014
rhumerus -29.8804 0.935605 -83.8658
rradius 19.7891
rwrist 19.8327
rhand -16.9286 20.9177
rfingers 7.12502
rthumb 9.30425 -8.857
lclavicle -4.96962e-016 1.70955e-014
lhumerus -40.9546 -10.2913 92.5266
lradius 35.5701
lwrist 13.3661
lhand -19.065 24.7152
lfingers 7.12502
lthumb 7.24239 54.5713
rfemur -14.3609 -2.85456 27.9549
rtibia 24.2532
rfoot -17.8249 -1.03103
rtoes 4.98247
lfemur -17.078 5.12568 -15.6392
ltibia 65.3274
lfoot -6.46575 1.95697
ltoes -25.8164
191
root 9.27165 17.6925 -23.4414 2.20966 2.30199 -4.08427
lowerback 5.93356 -2.03965 3.07838
upperback 0.224792 -2.42036 2.71275
thorax -3.10499 -1.22952 1.27977
lowerneck 0.0490385 6.13926 15.2213
upperneck 1.73063 8.70286 -19.6638
head 2.07361 4.30938 -8.35915
rclavicle 5.98839e-015 1.63003e-014
rhumerus -29.086 1.36183 -84.0853
rradius 19.6944
rwrist 19.8213
rhand -16.952 21.1506
rfingers 7.12502
rthumb 9.28168 -8.62506
lclavicle 5.98839e-015 1.63003e-014
lhumerus -40.6928 -9.76827 91.9892
lradius 36.0126
lwrist 13.2246
lhand -18.6062 26.5515
lfingers 7.12502
lthumb 7.68522 56.3919
rfemur -14.2666 -3.0665 27.9396
rtibia 24.5417
rfoot -18.4073 -0.526536
rtoes 5.9418
lfemur -18.6046 5.32757 -15.9839
ltibia 65.7039
lfoot -7.10966 1.49915
ltoes -26.6393
192
root 9.26381 17.6801 -23.3252 2.35761 1.97924 -3.94857
lowerback 5.72777 -1.85711 2.9881
upperback 0.250823 -2.19722 2.64035
thorax -2.96155 -1.11696 1.22746
lowerneck -0.328823 6.07435 15.2234
upperneck 2.0815 8.6117 -19.6362
head 2.22041 4.2394 -8.3414
rclavicle -6.85807e-015 7.95139e-016
rhumerus -28.4456 1.76821 -84.2508
rradius 19.7128
rwrist 19.6563
rhand -17.0303 21.1262
rfingers 7.12502
rthumb 9.20613 -8.65281
lclavicle -6.85807e-015 7.95139e-016
lhumerus -40.494 -9.4536 91.6498
lradius 36.5508
lwrist 13.4258
lhand -17.9921 28.5476
lfingers 7.12502
lthumb 8.27796 58.3654
rfemur -14.1615 -3.03857 27.8161
rtibia 24.8473
rfoot -18.9852 -0.0158265
rtoes 8.49491
lfemur -20.11 5.56946 -16.3899
ltibia 65.8915
lfoot -7.8719 0.825301
ltoes -23.7256
193
root 9.25579 17.6638 -23.2019 2.39094 1.66544 -3.96221
lowerback 5.65176 -1.72309 3.03947
upperback 0.173748 -2.01669 2.62902
thorax -3.00044 -1.02859 1.17123
lowerneck -0.398672 6.03303 15.1273
upperneck 2.44501 8.59035 -19.555
head 2.32341 4.21887 -8.29515
rclavicle -1.93815e-014 3.57812e-015
rhumerus -28.2436 2.22471 -84.3756
rradius 20.014
rwrist 19.4292
rhand -17.0392 21.0647
rfingers 7.12502
rthumb 9.19757 -8.71466
lclavicle -1.93815e-014 3.57812e-015
lhumerus -40.72 -9.36143 91.638
lradius 37.0462
lwrist 14.4592
lhand -18.7278 28.8657
lfingers 7.12502
lthumb 7.56784 58.7103
rfemur -13.8804 -3.02222 27.852
rtibia 25.1571
rfoot -19.7197 0.33696
rtoes 9.91322
lfemur -21.394 5.82405 -16.5874
ltibia 65.9118
lfoot -8.64625 -0.079652
ltoes -19.9753
194
root 9.24919 17.6458 -23.0844 2.36384 1.61635 -4.10506
lowerback 5.68887 -1.6874 3.27439
upperback 0.0958516 -1.94946 2.60327
thorax -3.11051 -0.999728 1.01111
lowerneck -0.198876 6.01809 14.931
upperneck 2.53684 8.5891 -19.2072
head 2.28907 4.22825 -8.1514
rclavicle -4.12975e-014 4.37326e-015
rhumerus -28.0494 2.59968 -84.5905
rradius 20.3277
rwrist 19.0326
rhand -16.8428 20.834
rfingers 7.12502
rthumb 9.387 -8.93701
lclavicle -4.12975e-014 4.37326e-015
lhumerus -41.1028 -9.48194 91.7063
lradius 37.5044
lwrist 16.1338
lhand -20.4838 27.1638
lfingers 7.12502
lthumb 5.87278 57.0624
rfemur -13.6576 -3.40702 28.0771
rtibia 25.4632
rfoot -20.4213 0.227101
rtoes 8.49288
lfemur -22.6515 5.78856 -16.638
ltibia 65.8157
lfoot -9.42636 -1.01934
ltoes -19.998
195
root 9.24414 17.6358 -22.9685 2.31913 1.72039 -4.15826
lowerback 5.7272 -1.65659 3.46388
upperback 0.0943963 -1.89698 2.49458
thorax -3.14306 -0.977315 0.790056
lowerneck -0.00972427 5.94396 14.9163
upperneck 2.47451 8.48853 -18.9608
head 2.20839 4.19104 -8.08
rclavicle 3.35449e-015 -1.07344e-014
rhumerus -27.5733 2.90173 -84.8703
rradius 20.3827
rwrist 18.58
rhand -16.8916 20.7579
rfingers 7.12502
rthumb 9.33996 -9.01519
lclavicle 3.35449e-015 -1.07344e-014
lhumerus -41.2432 -9.61684 91.6139
lradius 37.8337
lwrist 17.3881
lhand -21.6178 25.3976
lfingers 7.12502
lthumb 4.7778 55.3238
rfemur -13.4247 -3.94755 28.198
rtibia 25.7911
rfoot -20.7898 0.130659
rtoes 6.46947
lfemur -23.9032 5.51666 -16.7862
ltibia 65.5796
lfoot -10.0283 -1.94036
ltoes -22.0547
